<?xml version="1.0" encoding="UTF-8"?>
<!DOCTYPE svg PUBLIC "-//W3C//DTD SVG 1.1//EN" "http://www.w3.org/Graphics/SVG/1.1/DTD/svg11.dtd">
<svg xmlns="http://www.w3.org/2000/svg" version="1.1" width="345px" height="342px" style="shape-rendering:geometricPrecision; text-rendering:geometricPrecision; image-rendering:optimizeQuality; fill-rule:evenodd; clip-rule:evenodd" xmlns:xlink="http://www.w3.org/1999/xlink">
<g><path style="opacity:0.622" fill="#909090" d="M 188.5,4.5 C 177.833,4.5 167.167,4.5 156.5,4.5C 167.17,1.87214 177.837,1.87214 188.5,4.5 Z"/></g>
<g><path style="opacity:0.999" fill="#fcfcfc" d="M 156.5,4.5 C 167.167,4.5 177.833,4.5 188.5,4.5C 189.388,9.07264 190.721,13.406 192.5,17.5C 193.768,19.9052 194.435,22.5718 194.5,25.5C 194.336,28.1873 194.503,30.854 195,33.5C 195.383,34.056 195.883,34.3893 196.5,34.5C 196.517,38.5339 197.517,42.2006 199.5,45.5C 199.5,45.8333 199.5,46.1667 199.5,46.5C 199.5,47.5 199.5,48.5 199.5,49.5C 202.583,49.916 205.583,50.5826 208.5,51.5C 209.167,51.5 209.833,51.5 210.5,51.5C 221.328,41.5054 231.661,31.0054 241.5,20C 242.448,19.5172 243.448,19.3505 244.5,19.5C 248.151,20.6589 251.485,22.3256 254.5,24.5C 255.659,26.2503 257.326,27.2503 259.5,27.5C 259.973,28.9063 260.973,29.573 262.5,29.5C 263.492,29.3284 264.158,29.6618 264.5,30.5C 265.262,32.2624 266.596,33.2624 268.5,33.5C 268.923,34.2646 269.257,35.0979 269.5,36C 267.643,41.3969 266.31,46.8969 265.5,52.5C 263.053,58.1893 261.386,64.1893 260.5,70.5C 258.982,72.6807 257.982,75.1807 257.5,78C 257.57,78.7648 257.903,79.2648 258.5,79.5C 260.63,81.1271 262.63,82.9604 264.5,85C 266.227,84.4742 267.894,84.6409 269.5,85.5C 274.854,84.5859 279.854,82.9193 284.5,80.5C 286.905,79.2318 289.572,78.5651 292.5,78.5C 296.286,78.68 299.619,77.68 302.5,75.5C 303.568,74.5655 304.901,74.2322 306.5,74.5C 307.959,74.4326 309.292,74.7659 310.5,75.5C 311.906,75.9731 312.573,76.9731 312.5,78.5C 313.34,80.8525 314.674,82.8525 316.5,84.5C 319.748,88.6813 322.082,93.0146 323.5,97.5C 324.15,99.4352 324.483,101.435 324.5,103.5C 321.167,107.5 317.5,111.167 313.5,114.5C 309.9,116.43 306.9,119.097 304.5,122.5C 300.435,126.559 296.768,130.893 293.5,135.5C 293.963,138.482 294.296,141.482 294.5,144.5C 299.415,145.883 304.415,146.883 309.5,147.5C 310.93,148.537 312.597,149.204 314.5,149.5C 314.833,149.5 315.167,149.5 315.5,149.5C 317.265,150.461 319.265,150.795 321.5,150.5C 326.852,152.225 332.352,153.892 338,155.5C 339.03,155.836 339.53,156.503 339.5,157.5C 339.5,167.5 339.5,177.5 339.5,187.5C 337.901,187.232 336.568,187.566 335.5,188.5C 327.961,190.215 320.628,192.215 313.5,194.5C 309.126,194.502 305.126,195.502 301.5,197.5C 299.396,197.201 297.396,197.534 295.5,198.5C 293.914,202.403 293.081,206.403 293,210.5C 294.129,212.141 295.629,213.141 297.5,213.5C 303.548,218.881 309.215,224.548 314.5,230.5C 316.239,233.243 318.573,235.243 321.5,236.5C 321.5,238.5 322.5,239.5 324.5,239.5C 325.091,240.151 325.757,240.818 326.5,241.5C 322.052,251.425 316.385,260.425 309.5,268.5C 307.621,267.659 305.621,267.325 303.5,267.5C 296.825,264.724 289.825,262.724 282.5,261.5C 278.452,259.538 274.119,258.038 269.5,257C 267.613,256.22 265.946,256.387 264.5,257.5C 262.203,259.294 260.037,261.294 258,263.5C 257.308,264.437 257.475,265.103 258.5,265.5C 258.171,268.228 258.837,270.562 260.5,272.5C 260.294,275.495 260.96,278.162 262.5,280.5C 262.32,284.286 263.32,287.619 265.5,290.5C 265.171,293.228 265.837,295.562 267.5,297.5C 268.434,298.568 268.768,299.901 268.5,301.5C 268.575,304.206 268.908,306.873 269.5,309.5C 262.668,314.662 255.334,318.996 247.5,322.5C 244.833,322.5 242.167,322.5 239.5,322.5C 237.937,321.055 236.604,319.389 235.5,317.5C 235.631,316.761 235.464,316.094 235,315.5C 228.244,308.239 221.078,301.572 213.5,295.5C 213.167,294.833 212.833,294.167 212.5,293.5C 212.038,292.12 211.038,291.453 209.5,291.5C 206.465,292.061 203.465,292.727 200.5,293.5C 198.272,297.186 197.272,301.186 197.5,305.5C 197.768,307.099 197.434,308.432 196.5,309.5C 194.255,314.481 192.921,319.814 192.5,325.5C 192.737,326.791 192.404,327.791 191.5,328.5C 190.133,331.268 189.133,334.268 188.5,337.5C 187.311,338.429 185.978,338.762 184.5,338.5C 175.827,338.666 167.16,338.5 158.5,338C 157.309,337.302 156.309,336.469 155.5,335.5C 152.884,321.488 149.551,307.654 145.5,294C 144.552,293.517 143.552,293.351 142.5,293.5C 139.911,291.843 137.244,291.509 134.5,292.5C 129.887,297.779 124.887,302.779 119.5,307.5C 116.757,309.239 114.757,311.573 113.5,314.5C 111.5,314.5 110.5,315.5 110.5,317.5C 108.5,317.5 107.5,318.5 107.5,320.5C 106.021,324.056 103.688,325.056 100.5,323.5C 97.9922,321.076 94.9922,319.41 91.5,318.5C 86.6566,316.582 82.3233,313.916 78.5,310.5C 77.4183,309.406 76.7517,308.073 76.5,306.5C 79.7115,294.869 82.7115,283.203 85.5,271.5C 87.2809,268.817 87.7809,265.817 87,262.5C 85.1667,260.667 83.3333,258.833 81.5,257C 79.6131,256.22 77.9464,256.387 76.5,257.5C 73.4954,259.277 70.1621,260.277 66.5,260.5C 62.6215,260.024 59.2882,261.024 56.5,263.5C 55.791,264.404 54.791,264.737 53.5,264.5C 50.1262,264.674 46.7928,265.174 43.5,266C 42.944,266.383 42.6107,266.883 42.5,267.5C 40.1016,267.259 38.1016,267.926 36.5,269.5C 35.5,269.167 34.8333,268.5 34.5,267.5C 33.6167,264.296 31.9501,261.629 29.5,259.5C 27.7497,258.341 26.7497,256.674 26.5,254.5C 24.3347,249.856 22.5014,245.189 21,240.5C 31.7262,231.275 41.5596,221.275 50.5,210.5C 51.6935,210.03 52.3601,209.03 52.5,207.5C 52.5643,205.443 51.8976,203.777 50.5,202.5C 50.7135,200.856 50.3802,199.356 49.5,198C 46.5219,197.304 43.5219,196.804 40.5,196.5C 37.5718,196.435 34.9052,195.768 32.5,194.5C 28.8371,192.584 24.8371,191.584 20.5,191.5C 18.1617,189.96 15.4951,189.294 12.5,189.5C 12.1667,189.5 11.8333,189.5 11.5,189.5C 9.7857,188.262 7.7857,187.595 5.5,187.5C 5.5,176.833 5.5,166.167 5.5,155.5C 6.95875,155.567 8.29208,155.234 9.5,154.5C 9.83333,154.5 10.1667,154.5 10.5,154.5C 14.6806,153.461 18.6806,152.128 22.5,150.5C 25.1873,150.664 27.854,150.497 30.5,150C 31.056,149.617 31.3893,149.117 31.5,148.5C 34.2282,148.829 36.5615,148.163 38.5,146.5C 42.6163,146.459 46.6163,145.793 50.5,144.5C 51.1611,141.512 51.8278,138.512 52.5,135.5C 52.4805,134.274 52.1471,133.274 51.5,132.5C 49.5,131.167 47.8333,129.5 46.5,127.5C 38.5049,118.672 30.0049,110.338 21,102.5C 20.5172,101.552 20.3505,100.552 20.5,99.5C 22.539,98.089 23.539,96.089 23.5,93.5C 25.4176,88.6566 28.0843,84.3233 31.5,80.5C 33.5338,79.4522 34.8671,77.7855 35.5,75.5C 36.325,74.6143 37.325,74.281 38.5,74.5C 44.1893,76.9473 50.1893,78.6139 56.5,79.5C 58.4385,81.1628 60.7718,81.8294 63.5,81.5C 65.7028,81.6036 67.7028,82.2702 69.5,83.5C 71.0276,84.3092 72.6943,84.9759 74.5,85.5C 75.1667,85.5 75.8333,85.5 76.5,85.5C 77.9464,86.6129 79.6131,86.7796 81.5,86C 88.3168,81.1093 89.3168,75.276 84.5,68.5C 81.5438,56.9136 78.8771,45.247 76.5,33.5C 81.9673,29.0474 87.9673,25.3808 94.5,22.5C 96.9674,22.2451 98.9674,21.2451 100.5,19.5C 100.833,19.5 101.167,19.5 101.5,19.5C 104.431,21.0908 107.098,23.0908 109.5,25.5C 116.119,31.4519 122.452,37.7853 128.5,44.5C 129.757,47.4274 131.757,49.7607 134.5,51.5C 134.833,51.5 135.167,51.5 135.5,51.5C 137.894,50.9853 140.228,50.3186 142.5,49.5C 142.833,49.5 143.167,49.5 143.5,49.5C 144.5,49.5 145.5,49.5 146.5,49.5C 146.833,46.1667 147.167,42.8333 147.5,39.5C 151.26,28.1297 154.26,16.4631 156.5,4.5 Z M 205.5,92.5 C 208.789,94.1584 212.123,95.8251 215.5,97.5C 217.822,99.664 220.489,101.331 223.5,102.5C 251.797,126.049 262.464,156.049 255.5,192.5C 255.5,192.833 255.5,193.167 255.5,193.5C 253.928,196.215 252.928,199.215 252.5,202.5C 251.069,203.78 250.402,205.447 250.5,207.5C 248.992,209.181 247.992,211.181 247.5,213.5C 241.908,221.099 235.908,228.433 229.5,235.5C 227.251,236.08 225.585,237.413 224.5,239.5C 222.596,239.738 221.262,240.738 220.5,242.5C 218.326,242.75 216.659,243.75 215.5,245.5C 213.847,245.66 212.514,246.326 211.5,247.5C 209.033,247.755 207.033,248.755 205.5,250.5C 203.214,250.595 201.214,251.262 199.5,252.5C 195.313,253.213 191.313,254.213 187.5,255.5C 177.498,256.782 167.498,256.782 157.5,255.5C 153.614,254.51 149.614,253.51 145.5,252.5C 143.786,251.262 141.786,250.595 139.5,250.5C 121.383,242.383 107.383,229.717 97.5,212.5C 97.0075,210.181 96.0075,208.181 94.5,206.5C 94.6716,205.508 94.3382,204.842 93.5,204.5C 93.405,202.214 92.7384,200.214 91.5,198.5C 91.2785,195.933 90.6118,193.599 89.5,191.5C 89.1491,187.316 88.4824,183.316 87.5,179.5C 87.5,179.167 87.5,178.833 87.5,178.5C 87.2429,166.968 88.5762,155.635 91.5,144.5C 92.404,143.791 92.7373,142.791 92.5,141.5C 93.9313,140.22 94.5979,138.553 94.5,136.5C 95.6737,135.486 96.3404,134.153 96.5,132.5C 98.2503,131.341 99.2503,129.674 99.5,127.5C 100.82,125.537 102.154,123.537 103.5,121.5C 104.906,121.027 105.573,120.027 105.5,118.5C 106.167,118.5 106.5,118.167 106.5,117.5C 108.914,116.089 110.581,114.089 111.5,111.5C 112.167,111.5 112.5,111.167 112.5,110.5C 114.404,110.262 115.738,109.262 116.5,107.5C 119.06,105.727 121.393,103.727 123.5,101.5C 125.153,101.34 126.486,100.674 127.5,99.5C 128.167,99.5 128.5,99.1667 128.5,98.5C 130.153,98.3404 131.486,97.6737 132.5,96.5C 135.232,95.134 137.899,93.8007 140.5,92.5C 143.397,91.871 146.064,90.871 148.5,89.5C 167.822,84.7872 186.822,85.7872 205.5,92.5 Z"/></g>
<g><path style="opacity:0.039" fill="#606060" d="M 188.5,4.5 C 189.117,4.61071 189.617,4.94404 190,5.5C 191.154,9.447 191.987,13.447 192.5,17.5C 190.721,13.406 189.388,9.07264 188.5,4.5 Z"/></g>
<g><path style="opacity:0.208" fill="#767676" d="M 109.5,25.5 C 107.098,23.0908 104.431,21.0908 101.5,19.5C 101.517,17.9719 102.184,17.4719 103.5,18C 106.118,20.1057 108.118,22.6057 109.5,25.5 Z"/></g>
<g><path style="opacity:0.333" fill="#848484" d="M 100.5,19.5 C 98.9674,21.2451 96.9674,22.2451 94.5,22.5C 96.0326,20.7549 98.0326,19.7549 100.5,19.5 Z"/></g>
<g><path style="opacity:0.216" fill="#8c8c8c" d="M 156.5,4.5 C 154.26,16.4631 151.26,28.1297 147.5,39.5C 149.742,27.5281 152.742,15.8615 156.5,4.5 Z"/></g>
<g><path style="opacity:0.086" fill="#696969" d="M 254.5,24.5 C 256.674,24.7497 258.341,25.7497 259.5,27.5C 257.326,27.2503 255.659,26.2503 254.5,24.5 Z"/></g>
<g><path style="opacity:0.051" fill="#585858" d="M 259.5,27.5 C 261.027,27.427 262.027,28.0937 262.5,29.5C 260.973,29.573 259.973,28.9063 259.5,27.5 Z"/></g>
<g><path style="opacity:0.592" fill="#939393" d="M 244.5,19.5 C 243.448,19.3505 242.448,19.5172 241.5,20C 231.661,31.0054 221.328,41.5054 210.5,51.5C 220.272,40.5568 230.272,29.7235 240.5,19C 242.066,18.235 243.399,18.4017 244.5,19.5 Z"/></g>
<g><path style="opacity:0.047" fill="#5a5a5a" d="M 264.5,30.5 C 266.404,30.7376 267.738,31.7376 268.5,33.5C 266.596,33.2624 265.262,32.2624 264.5,30.5 Z"/></g>
<g><path style="opacity:0.933" fill="#9e9e9e" d="M 194.5,25.5 C 195.657,28.2727 196.324,31.2727 196.5,34.5C 195.883,34.3893 195.383,34.056 195,33.5C 194.503,30.854 194.336,28.1873 194.5,25.5 Z"/></g>
<g><path style="opacity:0.075" fill="#727272" d="M 268.5,33.5 C 269.693,33.9704 270.36,34.9704 270.5,36.5C 269.199,42.0626 267.533,47.396 265.5,52.5C 266.31,46.8969 267.643,41.3969 269.5,36C 269.257,35.0979 268.923,34.2646 268.5,33.5 Z"/></g>
<g><path style="opacity:0.329" fill="#858585" d="M 196.5,34.5 C 198.258,37.8544 199.258,41.521 199.5,45.5C 197.517,42.2006 196.517,38.5339 196.5,34.5 Z"/></g>
<g><path style="opacity:0.124" fill="#8f8f8f" d="M 147.5,39.5 C 147.167,42.8333 146.833,46.1667 146.5,49.5C 145.5,49.5 144.5,49.5 143.5,49.5C 145.141,46.2444 146.475,42.9111 147.5,39.5 Z"/></g>
<g><path style="opacity:0.333" fill="#7f7f7f" d="M 128.5,44.5 C 131.243,46.2393 133.243,48.5726 134.5,51.5C 131.757,49.7607 129.757,47.4274 128.5,44.5 Z"/></g>
<g><path style="opacity:0.329" fill="#787878" d="M 142.5,49.5 C 140.228,50.3186 137.894,50.9853 135.5,51.5C 137.081,49.9137 139.081,48.9137 141.5,48.5C 142.107,48.6236 142.44,48.9569 142.5,49.5 Z"/></g>
<g><path style="opacity:0.057" fill="#717171" d="M 199.5,46.5 C 202.686,48.0219 205.686,49.6885 208.5,51.5C 205.583,50.5826 202.583,49.916 199.5,49.5C 199.5,48.5 199.5,47.5 199.5,46.5 Z"/></g>
<g><path style="opacity:0.051" fill="#888888" d="M 76.5,33.5 C 78.8771,45.247 81.5438,56.9136 84.5,68.5C 80.8033,57.7331 77.47,46.7331 74.5,35.5C 74.7472,34.2867 75.4138,33.62 76.5,33.5 Z"/></g>
<g><path style="opacity:0.02" fill="#6a6a6a" d="M 265.5,52.5 C 264.611,58.8192 262.944,64.8192 260.5,70.5C 261.386,64.1893 263.053,58.1893 265.5,52.5 Z"/></g>
<g><path style="opacity:0.012" fill="#636363" d="M 306.5,74.5 C 306.917,73.8761 307.584,73.5427 308.5,73.5C 309.713,73.7472 310.38,74.4138 310.5,75.5C 309.292,74.7659 307.959,74.4326 306.5,74.5 Z"/></g>
<g><path style="opacity:0.039" fill="#777777" d="M 260.5,70.5 C 260.244,73.5979 259.578,76.5979 258.5,79.5C 257.903,79.2648 257.57,78.7648 257.5,78C 257.982,75.1807 258.982,72.6807 260.5,70.5 Z"/></g>
<g><path style="opacity:0.353" fill="#949494" d="M 38.5,74.5 C 37.325,74.281 36.325,74.6143 35.5,75.5C 34.8671,77.7855 33.5338,79.4522 31.5,80.5C 32.4412,78.5336 33.4412,76.5336 34.5,74.5C 35.9584,73.218 37.2918,73.218 38.5,74.5 Z"/></g>
<g><path style="opacity:0.043" fill="#626262" d="M 38.5,74.5 C 44.8192,75.3894 50.8192,77.0561 56.5,79.5C 50.1893,78.6139 44.1893,76.9473 38.5,74.5 Z"/></g>
<g><path style="opacity:0.694" fill="#919191" d="M 302.5,75.5 C 299.619,77.68 296.286,78.68 292.5,78.5C 295.505,76.7234 298.838,75.7234 302.5,75.5 Z"/></g>
<g><path style="opacity:0.333" fill="#878787" d="M 56.5,79.5 C 59.0673,79.7215 61.4006,80.3882 63.5,81.5C 60.7718,81.8294 58.4385,81.1628 56.5,79.5 Z"/></g>
<g><path style="opacity:0.298" fill="#8a8a8a" d="M 312.5,78.5 C 314.822,79.8021 316.155,81.8021 316.5,84.5C 314.674,82.8525 313.34,80.8525 312.5,78.5 Z"/></g>
<g><path style="opacity:0.545" fill="#818181" d="M 284.5,80.5 C 279.854,82.9193 274.854,84.5859 269.5,85.5C 269.611,84.8826 269.944,84.3826 270.5,84C 275.203,82.8242 279.87,81.6575 284.5,80.5 Z"/></g>
<g><path style="opacity:0.031" fill="#707070" d="M 74.5,85.5 C 72.6943,84.9759 71.0276,84.3092 69.5,83.5C 69.4346,83.0618 69.6012,82.7284 70,82.5C 72.0263,82.9147 73.5263,83.9147 74.5,85.5 Z"/></g>
<g><path style="opacity:0.514" fill="#949494" d="M 84.5,68.5 C 89.3168,75.276 88.3168,81.1093 81.5,86C 79.6131,86.7796 77.9464,86.6129 76.5,85.5C 77.648,84.8359 78.9813,84.6692 80.5,85C 82.3333,83.1667 84.1667,81.3333 86,79.5C 85.6805,75.8641 85.1805,72.1974 84.5,68.5 Z"/></g>
<g><path style="opacity:0.09" fill="#8a8a8a" d="M 205.5,92.5 C 186.822,85.7872 167.822,84.7872 148.5,89.5C 151.422,87.4688 154.755,86.3022 158.5,86C 173.146,84.3663 187.479,85.6996 201.5,90C 203.066,90.6082 204.4,91.4415 205.5,92.5 Z"/></g>
<g><path style="opacity:0.353" fill="#878787" d="M 148.5,89.5 C 146.064,90.871 143.397,91.871 140.5,92.5C 142.503,90.0181 145.169,89.0181 148.5,89.5 Z"/></g>
<g><path style="opacity:0.188" fill="#8b8b8b" d="M 23.5,93.5 C 23.539,96.089 22.539,98.089 20.5,99.5C 20.9925,97.1815 21.9925,95.1815 23.5,93.5 Z"/></g>
<g><path style="opacity:0.004" fill="#3b3b3b" d="M 132.5,96.5 C 131.486,97.6737 130.153,98.3404 128.5,98.5C 129.287,96.8958 130.62,96.2291 132.5,96.5 Z"/></g>
<g><path style="opacity:0.192" fill="#8b8b8b" d="M 215.5,97.5 C 218.803,98.1514 221.47,99.818 223.5,102.5C 220.489,101.331 217.822,99.664 215.5,97.5 Z"/></g>
<g><path style="opacity:0.031" fill="#7c7c7c" d="M 323.5,97.5 C 326.478,99.3477 326.812,101.348 324.5,103.5C 324.483,101.435 324.15,99.4352 323.5,97.5 Z"/></g>
<g><path style="opacity:0.027" fill="#696969" d="M 127.5,99.5 C 126.486,100.674 125.153,101.34 123.5,101.5C 124.287,99.8958 125.62,99.2291 127.5,99.5 Z"/></g>
<g><path style="opacity:0.012" fill="#646464" d="M 116.5,107.5 C 115.738,109.262 114.404,110.262 112.5,110.5C 113.262,108.738 114.596,107.738 116.5,107.5 Z"/></g>
<g><path style="opacity:0.118" fill="#8a8a8a" d="M 20.5,99.5 C 20.3505,100.552 20.5172,101.552 21,102.5C 30.0049,110.338 38.5049,118.672 46.5,127.5C 37.5572,119.729 28.7239,111.729 20,103.5C 19.235,101.934 19.4017,100.601 20.5,99.5 Z"/></g>
<g><path style="opacity:0.031" fill="#757575" d="M 111.5,111.5 C 110.581,114.089 108.914,116.089 106.5,117.5C 107.419,114.911 109.086,112.911 111.5,111.5 Z"/></g>
<g><path style="opacity:0.02" fill="#707070" d="M 313.5,114.5 C 311.1,117.903 308.1,120.57 304.5,122.5C 306.9,119.097 309.9,116.43 313.5,114.5 Z"/></g>
<g><path style="opacity:0.051" fill="#797979" d="M 105.5,118.5 C 105.573,120.027 104.906,121.027 103.5,121.5C 103.427,119.973 104.094,118.973 105.5,118.5 Z"/></g>
<g><path style="opacity:0.125" fill="#868686" d="M 223.5,102.5 C 246.76,119.017 258.427,141.684 258.5,170.5C 258.333,175.5 258.167,180.5 258,185.5C 257.61,188.104 256.776,190.438 255.5,192.5C 262.464,156.049 251.797,126.049 223.5,102.5 Z"/></g>
<g><path style="opacity:0.055" fill="#606060" d="M 99.5,127.5 C 99.2503,129.674 98.2503,131.341 96.5,132.5C 96.7497,130.326 97.7497,128.659 99.5,127.5 Z"/></g>
<g><path style="opacity:0.008" fill="#6a6a6a" d="M 293.5,135.5 C 294.718,137.828 295.718,140.328 296.5,143C 300.927,144.57 305.26,146.07 309.5,147.5C 304.415,146.883 299.415,145.883 294.5,144.5C 294.296,141.482 293.963,138.482 293.5,135.5 Z"/></g>
<g><path style="opacity:0.043" fill="#676767" d="M 94.5,136.5 C 94.5979,138.553 93.9313,140.22 92.5,141.5C 92.4021,139.447 93.0687,137.78 94.5,136.5 Z"/></g>
<g><path style="opacity:0.435" fill="#7e7e7e" d="M 51.5,132.5 C 52.1471,133.274 52.4805,134.274 52.5,135.5C 51.8278,138.512 51.1611,141.512 50.5,144.5C 46.6163,145.793 42.6163,146.459 38.5,146.5C 41.9365,145.055 45.6032,144.055 49.5,143.5C 50.5828,139.915 51.2494,136.249 51.5,132.5 Z"/></g>
<g><path style="opacity:0.702" fill="#8f8f8f" d="M 38.5,146.5 C 36.5615,148.163 34.2282,148.829 31.5,148.5C 33.5145,147.076 35.8478,146.41 38.5,146.5 Z"/></g>
<g><path style="opacity:0.012" fill="#686868" d="M 309.5,147.5 C 311.698,147.12 313.365,147.787 314.5,149.5C 312.597,149.204 310.93,148.537 309.5,147.5 Z"/></g>
<g><path style="opacity:0.933" fill="#9e9e9e" d="M 31.5,148.5 C 31.3893,149.117 31.056,149.617 30.5,150C 27.854,150.497 25.1873,150.664 22.5,150.5C 25.2727,149.343 28.2727,148.676 31.5,148.5 Z"/></g>
<g><path style="opacity:0.043" fill="#747474" d="M 321.5,150.5 C 319.265,150.795 317.265,150.461 315.5,149.5C 315.56,148.957 315.893,148.624 316.5,148.5C 318.336,149.028 320.003,149.694 321.5,150.5 Z"/></g>
<g><path style="opacity:0.043" fill="#6a6a6a" d="M 321.5,150.5 C 328.833,151.001 335.499,153.167 341.5,157C 341.272,157.399 340.938,157.565 340.5,157.5C 340.167,157.5 339.833,157.5 339.5,157.5C 339.53,156.503 339.03,155.836 338,155.5C 332.352,153.892 326.852,152.225 321.5,150.5 Z"/></g>
<g><path style="opacity:0.384" fill="#7d7d7d" d="M 22.5,150.5 C 18.6806,152.128 14.6806,153.461 10.5,154.5C 10.62,153.414 11.2867,152.747 12.5,152.5C 15.7816,151.512 19.1149,150.846 22.5,150.5 Z"/></g>
<g><path style="opacity:0.462" fill="#919191" d="M 9.5,154.5 C 8.29208,155.234 6.95875,155.567 5.5,155.5C 5.5,166.167 5.5,176.833 5.5,187.5C 7.7857,187.595 9.7857,188.262 11.5,189.5C 9.13895,189.326 6.80562,188.993 4.5,188.5C 2.83755,177.096 3.17088,165.763 5.5,154.5C 6.99481,153.295 8.32814,153.295 9.5,154.5 Z"/></g>
<g><path style="opacity:0.102" fill="#737373" d="M 91.5,144.5 C 88.5762,155.635 87.2429,166.968 87.5,178.5C 85.5525,166.796 86.8859,155.463 91.5,144.5 Z"/></g>
<g><path style="opacity:0.671" fill="#a7a7a7" d="M 339.5,157.5 C 339.833,157.5 340.167,157.5 340.5,157.5C 341.564,165.131 341.731,172.798 341,180.5C 341.053,183.675 340.22,186.342 338.5,188.5C 337.5,188.5 336.5,188.5 335.5,188.5C 336.568,187.566 337.901,187.232 339.5,187.5C 339.5,177.5 339.5,167.5 339.5,157.5 Z"/></g>
<g><path style="opacity:0.043" fill="#6b6b6b" d="M 87.5,179.5 C 88.4824,183.316 89.1491,187.316 89.5,191.5C 87.7501,187.817 87.0834,183.817 87.5,179.5 Z"/></g>
<g><path style="opacity:0.067" fill="#8d8d8d" d="M 12.5,189.5 C 15.4951,189.294 18.1617,189.96 20.5,191.5C 17.5718,191.435 14.9052,190.768 12.5,189.5 Z"/></g>
<g><path style="opacity:0.498" fill="#999999" d="M 20.5,191.5 C 24.8371,191.584 28.8371,192.584 32.5,194.5C 28.2393,194.102 24.2393,193.102 20.5,191.5 Z"/></g>
<g><path style="opacity:0.063" fill="#7f7f7f" d="M 335.5,188.5 C 336.5,188.5 337.5,188.5 338.5,188.5C 330.465,191.258 322.132,193.258 313.5,194.5C 320.628,192.215 327.961,190.215 335.5,188.5 Z"/></g>
<g><path style="opacity:0.2" fill="#747474" d="M 89.5,191.5 C 90.6118,193.599 91.2785,195.933 91.5,198.5C 89.8372,196.562 89.1706,194.228 89.5,191.5 Z"/></g>
<g><path style="opacity:0.122" fill="#909090" d="M 313.5,194.5 C 309.761,196.102 305.761,197.102 301.5,197.5C 305.126,195.502 309.126,194.502 313.5,194.5 Z"/></g>
<g><path style="opacity:0.314" fill="#898989" d="M 255.5,193.5 C 255.472,196.916 254.472,199.916 252.5,202.5C 252.928,199.215 253.928,196.215 255.5,193.5 Z"/></g>
<g><path style="opacity:0.141" fill="#828282" d="M 40.5,196.5 C 43.5219,196.804 46.5219,197.304 49.5,198C 50.3802,199.356 50.7135,200.856 50.5,202.5C 49.7515,201.469 49.0848,200.302 48.5,199C 45.5432,198.721 42.8766,197.887 40.5,196.5 Z"/></g>
<g><path style="opacity:0.125" fill="#797979" d="M 301.5,197.5 C 299.552,198.131 297.719,199.131 296,200.5C 295.394,203.43 294.56,206.263 293.5,209C 295.041,210.371 296.375,211.871 297.5,213.5C 295.629,213.141 294.129,212.141 293,210.5C 293.081,206.403 293.914,202.403 295.5,198.5C 297.396,197.534 299.396,197.201 301.5,197.5 Z"/></g>
<g><path style="opacity:0.788" fill="#8b8b8b" d="M 91.5,198.5 C 92.7384,200.214 93.405,202.214 93.5,204.5C 91.7202,203.01 91.0535,201.01 91.5,198.5 Z"/></g>
<g><path style="opacity:0.169" fill="#828282" d="M 50.5,202.5 C 51.8976,203.777 52.5643,205.443 52.5,207.5C 52.3601,209.03 51.6935,210.03 50.5,210.5C 51.2318,207.932 51.2318,205.266 50.5,202.5 Z"/></g>
<g><path style="opacity:0.008" fill="#7f7f7f" d="M 94.5,206.5 C 96.0075,208.181 97.0075,210.181 97.5,212.5C 95.461,211.089 94.461,209.089 94.5,206.5 Z"/></g>
<g><path style="opacity:0.255" fill="#949494" d="M 250.5,207.5 C 250.539,210.089 249.539,212.089 247.5,213.5C 247.992,211.181 248.992,209.181 250.5,207.5 Z"/></g>
<g><path style="opacity:0.471" fill="#989898" d="M 247.5,213.5 C 244.979,218.866 241.812,223.866 238,228.5C 235.564,231.447 232.731,233.78 229.5,235.5C 235.908,228.433 241.908,221.099 247.5,213.5 Z"/></g>
<g><path style="opacity:0.012" fill="#6c6c6c" d="M 314.5,230.5 C 317.427,231.757 319.761,233.757 321.5,236.5C 318.573,235.243 316.239,233.243 314.5,230.5 Z"/></g>
<g><path style="opacity:0.357" fill="#777777" d="M 321.5,236.5 C 322.833,237.167 323.833,238.167 324.5,239.5C 322.5,239.5 321.5,238.5 321.5,236.5 Z"/></g>
<g><path style="opacity:0.506" fill="#9c9c9c" d="M 229.5,235.5 C 228.871,237.997 227.204,239.33 224.5,239.5C 225.585,237.413 227.251,236.08 229.5,235.5 Z"/></g>
<g><path style="opacity:0.267" fill="#777777" d="M 224.5,239.5 C 223.738,241.262 222.404,242.262 220.5,242.5C 221.262,240.738 222.596,239.738 224.5,239.5 Z"/></g>
<g><path style="opacity:0.196" fill="#909090" d="M 50.5,210.5 C 41.5596,221.275 31.7262,231.275 21,240.5C 22.5014,245.189 24.3347,249.856 26.5,254.5C 22.6811,250.198 20.5145,245.198 20,239.5C 30.3385,229.994 40.5051,220.328 50.5,210.5 Z"/></g>
<g><path style="opacity:0.494" fill="#9c9c9c" d="M 220.5,242.5 C 219.514,244.408 217.848,245.408 215.5,245.5C 216.659,243.75 218.326,242.75 220.5,242.5 Z"/></g>
<g><path style="opacity:0.322" fill="#7d7d7d" d="M 211.5,247.5 C 209.967,249.245 207.967,250.245 205.5,250.5C 207.033,248.755 209.033,247.755 211.5,247.5 Z"/></g>
<g><path style="opacity:0.161" fill="#7a7a7a" d="M 139.5,250.5 C 141.786,250.595 143.786,251.262 145.5,252.5C 143.102,252.741 141.102,252.074 139.5,250.5 Z"/></g>
<g><path style="opacity:0.878" fill="#9e9e9e" d="M 205.5,250.5 C 204.01,252.28 202.01,252.946 199.5,252.5C 201.214,251.262 203.214,250.595 205.5,250.5 Z"/></g>
<g><path style="opacity:0.071" fill="#696969" d="M 145.5,252.5 C 149.614,253.51 153.614,254.51 157.5,255.5C 153.018,255.966 149.018,254.966 145.5,252.5 Z"/></g>
<g><path style="opacity:0.357" fill="#848484" d="M 199.5,252.5 C 199.389,253.117 199.056,253.617 198.5,254C 194.886,254.936 191.22,255.436 187.5,255.5C 191.313,254.213 195.313,253.213 199.5,252.5 Z"/></g>
<g><path style="opacity:0.139" fill="#7b7b7b" d="M 157.5,255.5 C 167.498,256.782 177.498,256.782 187.5,255.5C 182.243,256.975 176.743,257.642 171,257.5C 167.5,257.333 164,257.167 160.5,257C 159.263,256.768 158.263,256.268 157.5,255.5 Z"/></g>
<g><path style="opacity:0.071" fill="#949494" d="M 264.5,257.5 C 265.946,256.387 267.613,256.22 269.5,257C 274.119,258.038 278.452,259.538 282.5,261.5C 276.552,259.963 270.552,258.629 264.5,257.5 Z"/></g>
<g><path style="opacity:0.043" fill="#8e8e8e" d="M 76.5,257.5 C 77.9464,256.387 79.6131,256.22 81.5,257C 83.3333,258.833 85.1667,260.667 87,262.5C 87.7809,265.817 87.2809,268.817 85.5,271.5C 87.422,263.743 84.422,259.076 76.5,257.5 Z"/></g>
<g><path style="opacity:0.02" fill="#707070" d="M 264.5,257.5 C 262.909,260.431 260.909,263.098 258.5,265.5C 257.475,265.103 257.308,264.437 258,263.5C 260.037,261.294 262.203,259.294 264.5,257.5 Z"/></g>
<g><path style="opacity:0.106" fill="#888888" d="M 29.5,259.5 C 31.9501,261.629 33.6167,264.296 34.5,267.5C 32.0499,265.371 30.3833,262.704 29.5,259.5 Z"/></g>
<g><path style="opacity:0.412" fill="#959595" d="M 66.5,260.5 C 63.4954,262.277 60.1621,263.277 56.5,263.5C 59.2882,261.024 62.6215,260.024 66.5,260.5 Z"/></g>
<g><path style="opacity:0.357" fill="#909090" d="M 282.5,261.5 C 289.825,262.724 296.825,264.724 303.5,267.5C 296.183,266.258 289.183,264.258 282.5,261.5 Z"/></g>
<g><path style="opacity:0.137" fill="#8c8c8c" d="M 53.5,264.5 C 50.0635,265.945 46.3968,266.945 42.5,267.5C 42.6107,266.883 42.944,266.383 43.5,266C 46.7928,265.174 50.1262,264.674 53.5,264.5 Z"/></g>
<g><path style="opacity:0.569" fill="#999999" d="M 303.5,267.5 C 305.621,267.325 307.621,267.659 309.5,268.5C 307.402,269.484 305.402,269.151 303.5,267.5 Z"/></g>
<g><path style="opacity:0.043" fill="#727272" d="M 42.5,267.5 C 40.7857,268.738 38.7857,269.405 36.5,269.5C 38.1016,267.926 40.1016,267.259 42.5,267.5 Z"/></g>
<g><path style="opacity:0.455" fill="#7f7f7f" d="M 258.5,265.5 C 259.612,267.599 260.279,269.933 260.5,272.5C 258.837,270.562 258.171,268.228 258.5,265.5 Z"/></g>
<g><path style="opacity:0.053" fill="#6b6b6b" d="M 260.5,272.5 C 261.768,274.905 262.435,277.572 262.5,280.5C 260.96,278.162 260.294,275.495 260.5,272.5 Z"/></g>
<g><path style="opacity:0.886" fill="#929292" d="M 262.5,280.5 C 264.101,283.55 265.101,286.884 265.5,290.5C 263.32,287.619 262.32,284.286 262.5,280.5 Z"/></g>
<g><path style="opacity:0.075" fill="#8f8f8f" d="M 85.5,271.5 C 82.7115,283.203 79.7115,294.869 76.5,306.5C 76.7517,308.073 77.4183,309.406 78.5,310.5C 76.405,310.24 75.0717,309.074 74.5,307C 77.904,294.962 81.5707,283.129 85.5,271.5 Z"/></g>
<g><path style="opacity:0.145" fill="#8c8c8c" d="M 134.5,292.5 C 137.244,291.509 139.911,291.843 142.5,293.5C 139.794,293.425 137.127,293.092 134.5,292.5 Z"/></g>
<g><path style="opacity:0.047" fill="#767676" d="M 212.5,293.5 C 211.417,293.461 210.417,293.127 209.5,292.5C 206.601,293.642 203.601,294.308 200.5,294.5C 199.945,298.397 198.945,302.063 197.5,305.5C 197.272,301.186 198.272,297.186 200.5,293.5C 203.465,292.727 206.465,292.061 209.5,291.5C 211.038,291.453 212.038,292.12 212.5,293.5 Z"/></g>
<g><path style="opacity:0.498" fill="#818181" d="M 265.5,290.5 C 266.612,292.599 267.279,294.933 267.5,297.5C 265.837,295.562 265.171,293.228 265.5,290.5 Z"/></g>
<g><path style="opacity:0.024" fill="#898989" d="M 213.5,295.5 C 221.078,301.572 228.244,308.239 235,315.5C 235.464,316.094 235.631,316.761 235.5,317.5C 227.833,310.5 220.5,303.167 213.5,295.5 Z"/></g>
<g><path style="opacity:0.02" fill="#7b7b7b" d="M 268.5,301.5 C 270.413,304.04 270.746,306.707 269.5,309.5C 268.908,306.873 268.575,304.206 268.5,301.5 Z"/></g>
<g><path style="opacity:0.107" fill="#6d6d6d" d="M 119.5,307.5 C 118.243,310.427 116.243,312.761 113.5,314.5C 114.757,311.573 116.757,309.239 119.5,307.5 Z"/></g>
<g><path style="opacity:0.051" fill="#6d6d6d" d="M 196.5,309.5 C 195.768,315.094 194.435,320.427 192.5,325.5C 192.921,319.814 194.255,314.481 196.5,309.5 Z"/></g>
<g><path style="opacity:0.024" fill="#6a6a6a" d="M 113.5,314.5 C 112.833,315.833 111.833,316.833 110.5,317.5C 110.5,315.5 111.5,314.5 113.5,314.5 Z"/></g>
<g><path style="opacity:0.251" fill="#8a8a8a" d="M 142.5,293.5 C 143.552,293.351 144.552,293.517 145.5,294C 149.551,307.654 152.884,321.488 155.5,335.5C 151.402,322.446 147.902,309.113 145,295.5C 144.005,294.934 143.172,294.267 142.5,293.5 Z"/></g>
<g><path style="opacity:0.043" fill="#6e6e6e" d="M 110.5,317.5 C 109.833,318.833 108.833,319.833 107.5,320.5C 107.5,318.5 108.5,317.5 110.5,317.5 Z"/></g>
<g><path style="opacity:0.031" fill="#898989" d="M 91.5,318.5 C 94.9922,319.41 97.9922,321.076 100.5,323.5C 97.0078,322.59 94.0078,320.924 91.5,318.5 Z"/></g>
<g><path style="opacity:0.839" fill="#9c9c9c" d="M 239.5,322.5 C 242.167,322.5 244.833,322.5 247.5,322.5C 244.786,324.972 242.119,324.972 239.5,322.5 Z"/></g>
<g><path style="opacity:0.153" fill="#777777" d="M 191.5,328.5 C 191.469,331.959 190.802,335.292 189.5,338.5C 187.955,339.452 186.288,339.785 184.5,339.5C 184.5,339.167 184.5,338.833 184.5,338.5C 185.978,338.762 187.311,338.429 188.5,337.5C 189.133,334.268 190.133,331.268 191.5,328.5 Z"/></g>
<g><path style="opacity:0.507" fill="#999999" d="M 155.5,335.5 C 156.309,336.469 157.309,337.302 158.5,338C 167.16,338.5 175.827,338.666 184.5,338.5C 184.5,338.833 184.5,339.167 184.5,339.5C 175.156,340.778 165.822,340.611 156.5,339C 155.663,337.989 155.33,336.822 155.5,335.5 Z"/></g>
</svg>
