<?xml version="1.0" standalone="no"?>
<!DOCTYPE svg PUBLIC "-//W3C//DTD SVG 20010904//EN"
 "http://www.w3.org/TR/2001/REC-SVG-20010904/DTD/svg10.dtd">
<svg version="1.0" xmlns="http://www.w3.org/2000/svg"
 width="320.000000pt" height="320.000000pt" viewBox="0 0 320.000000 320.000000"
 preserveAspectRatio="xMidYMid meet">
<metadata>
Created by potrace 1.16, written by Peter Selinger 2001-2019
</metadata>
<g transform="translate(0.000000,320.000000) scale(0.100000,-0.100000)"
fill="#000000" stroke="none">
<path d="M1692 2980 c-23 -11 -296 -171 -605 -357 l-562 -338 -140 -5 c-112
-5 -149 -10 -185 -27 -56 -25 -113 -82 -142 -142 -23 -45 -23 -53 -26 -465 -2
-354 0 -426 13 -471 22 -77 69 -134 144 -172 61 -32 66 -33 192 -33 l130 0
582 -371 c320 -205 598 -379 617 -387 43 -18 113 -11 142 14 46 42 48 59 48
486 l1 403 60 40 c283 186 331 600 98 850 -33 35 -82 78 -109 95 l-50 32 0
377 c0 348 -2 379 -19 418 -33 71 -104 91 -189 53z"/>
<path d="M2435 2737 c-55 -31 -84 -99 -66 -156 6 -23 27 -54 48 -73 179 -161
259 -256 330 -394 203 -391 171 -864 -82 -1219 -24 -34 -74 -95 -113 -135 -81
-89 -92 -106 -92 -157 0 -95 100 -160 197 -129 34 11 198 190 264 289 110 164
190 362 226 560 26 139 23 390 -6 527 -69 327 -229 605 -468 813 -119 103
-163 117 -238 74z"/>
<path d="M2315 2256 c-51 -23 -77 -60 -83 -116 -4 -45 -1 -57 31 -108 104
-171 132 -266 132 -457 0 -158 -10 -201 -77 -348 -33 -73 -39 -97 -36 -132 12
-101 117 -155 208 -106 58 31 145 219 179 386 44 223 9 472 -99 690 -89 181
-159 233 -255 191z"/>
</g>
</svg>
